# xmcd CD database file
#
# Track frame offsets:
#	150
#	16874
#	31144
#	41208
#	56899
#	71640
#	86891
#	100933
#	112454
#	131214
#	145198
#	161591
#
# Disc length: 2340 seconds
#
# Revision: 0
# Processed by: cddbd v1.5.1PL2 Copyright (c) Steve Scherf et al.
# Submitted via: CDex 1.60beta1-cs1
#
DISCID=b309220c
DTITLE=Cesa and Marcos Paulo - Razões
DYEAR=2006
DGENRE=Country
TTITLE0=amor clandestino
TTITLE1=da boca pra fora
TTITLE2=amineira e a goiana
TTITLE3=razões pra chorar
TTITLE4=morena dos olhos verdes
TTITLE5=buscando perdão
TTITLE6=quanto tempo faz
TTITLE7=braço da viola
TTITLE8=tropeços do coração
TTITLE9=chuva de mulher
TTITLE10=porto seguro
TTITLE11=não consegui te esquecer
EXTD=YEAR: 2006
EXTT0=
EXTT1=
EXTT2=
EXTT3=
EXTT4=
EXTT5=
EXTT6=
EXTT7=
EXTT8=
EXTT9=
EXTT10=
EXTT11=
PLAYORDER=
